<svg id="Layer_1" data-name="Layer 1" xmlns="http://www.w3.org/2000/svg" viewBox="0 0 512 512"><defs><style>.cls-1{fill:#f4536a;}.cls-2{fill:#ee374b;}.cls-3{fill:#bf3455;}</style></defs><title>festive-bow-flat</title><rect class="cls-1" x="200.28" y="114.13" width="111.27" height="150.21" rx="38.25" ry="38.25"/><path class="cls-2" d="M273.3,114.13H239.92a38.25,38.25,0,0,1,38.25,38.25V226.1a38.25,38.25,0,0,1-38.25,38.25H273.3a38.25,38.25,0,0,0,38.25-38.25V152.38A38.25,38.25,0,0,0,273.3,114.13Z"/><path class="cls-1" d="M200.28,226.1V152.38a38.18,38.18,0,0,1,1.28-9.65c-121.9,21.8-183-35-197.68-51.34,24.53,38.22,18.54,83.94,18.54,83.94C18.14,205.26,7.29,241.81,2.5,257.11a34.56,34.56,0,0,0-.33,21.09c18.44,55.45,156.72-3.33,207.47-27.08A38.06,38.06,0,0,1,200.28,226.1Z"/><path class="cls-1" d="M509.5,257.11c-4.79-15.3-15.63-51.85-19.92-81.78,0,0-6-45.72,18.54-83.94-14.68,16.33-75.84,73.2-197.86,51.31a38.17,38.17,0,0,1,1.28,9.68V226.1a38.06,38.06,0,0,1-9.31,25c50.65,23.72,189.14,82.63,207.59,27.14A34.56,34.56,0,0,0,509.5,257.11Z"/><path class="cls-3" d="M207.26,130.4c-44.37-49.39-106-83-158-83C20.6,47.37,8.09,57.62,2.72,67.6A23.55,23.55,0,0,0,7.19,95.45C28,116,89.28,162.69,201.56,142.72A38,38,0,0,1,207.26,130.4Z"/><path class="cls-3" d="M509.28,67.6c-5.37-10-17.88-20.22-46.57-20.22-52,0-113.68,33.69-158.06,83.13a38.05,38.05,0,0,1,5.61,12.18C422.65,162.74,484,116.05,504.81,95.45A23.55,23.55,0,0,0,509.28,67.6Z"/><path class="cls-3" d="M303.58,251.69a368,368,0,0,0,13.63,212.94,594.46,594.46,0,0,1,33.28-69.46,244.86,244.86,0,0,0,66.76,21.69,277.06,277.06,0,0,1-40.13-135C348.14,271.77,321.05,259.83,303.58,251.69Z"/><path class="cls-3" d="M207.3,252.21c-17.75,8.25-44.83,20.11-73.67,30.12A277,277,0,0,1,93.51,416.86a244.86,244.86,0,0,0,66.76-21.69,594.35,594.35,0,0,1,33.28,69.46A368.05,368.05,0,0,0,207.3,252.21Z"/><path class="cls-2" d="M509.83,278.2c-6.37,19.15-27,24.67-53.45,22.72a29.29,29.29,0,0,0,13.83-16.66,34.56,34.56,0,0,0-.33-21.09c-4.79-15.3-15.63-51.85-19.92-81.78a146.71,146.71,0,0,1,4.64-52.27c29.24-13.24,46.58-30,53.52-37.73-24.53,38.22-18.54,83.94-18.54,83.94,4.28,29.93,15.13,66.48,19.92,81.78A34.56,34.56,0,0,1,509.83,278.2ZM200.28,226.1V152.38a38.18,38.18,0,0,1,1.28-9.65,298.23,298.23,0,0,1-42.45,4.88c-.06,1-.19,1.94-.19,2.93v90.9a48.06,48.06,0,0,0,8.9,28c15.37-6.25,29-12.34,39.46-17.19a40.52,40.52,0,0,1-7-22.83Z"/></svg>